<?xml version="1.0" encoding="utf-8"?>
<!-- Generator: Adobe Illustrator 16.0.0, SVG Export Plug-In . SVG Version: 6.00 Build 0)  -->
<!DOCTYPE svg PUBLIC "-//W3C//DTD SVG 1.1//EN" "http://www.w3.org/Graphics/SVG/1.1/DTD/svg11.dtd">
<svg version="1.1" id="Layer_1" xmlns="http://www.w3.org/2000/svg" xmlns:xlink="http://www.w3.org/1999/xlink" x="0px" y="0px"
	 width="455px" height="176px" viewBox="0 0 455 176" enable-background="new 0 0 455 176" xml:space="preserve">
<g>
	<g>
		<path fill-rule="evenodd" clip-rule="evenodd" fill="#929497" d="M31.519,29.433c0,0,42.076-9.472,32.882,27.271l11.92-16.646
			C76.322,40.058,49.769-12.486,31.519,29.433z"/>
		<path fill-rule="evenodd" clip-rule="evenodd" fill="#404041" d="M45.558,13.577c0,0,35.773-0.848,15.583,52.989
			C40.951,120.4,8.789,129.906,36.806,171.961c0,0-19.785-25.875,23.799-86.32C104.189,25.197,56.54,9.793,45.558,13.577z"/>
		<path fill-rule="evenodd" clip-rule="evenodd" fill="#929497" d="M46.315,123.775c0,0,16.922-15.699,44.673-2.443
			c18.227,8.707,36.067,19.949,47.916-2.631l-18.362,1.047l-41.746-9.207l-25.259,2.252L46.315,123.775z"/>
		<path fill-rule="evenodd" clip-rule="evenodd" fill="#404041" d="M43.627,126.385c-0.015,0.521,16.708-21.609,46.195-8.166
			c18.957,8.641,56.871,28.473,51.974-27.602c0,0-6.752,38.533-30.244,23.311c-27.205-17.631-57.722-14.678-67.023,9.197
			C44.529,123.125,43.643,125.865,43.627,126.385z"/>
		<path fill-rule="evenodd" clip-rule="evenodd" fill="#929497" d="M40.339,139.742c-0.758,1.807-1.306,4.086-0.687,3.051
			c6.568-10.992,27.813-15.613,56.333-0.01c5.572,3.049,30.875,20.814,41.733-10.547c0,0-13.897,15.963-36.084,3.42
			C75.46,120.861,49.7,117.414,40.339,139.742z"/>
		<path fill-rule="evenodd" clip-rule="evenodd" fill="#404041" d="M41.708,135.834c-1.914,3.506-2.473,8.049-2.189,7.523
			c6.761-12.646,29.872-18.322,57.83-2.625c11.046,6.203,32.086,17.572,42.367-12.648c0,0-13.641,16.607-37.429,3.434
			C76.029,116.977,52.863,115.371,41.708,135.834z"/>
		<path fill-rule="evenodd" clip-rule="evenodd" fill="#929497" d="M37.598,157.084c-0.825,1.779-1.458,4.037-0.801,3.021
			c6.94-10.742,26.607-16.461,54.161,0.111c5.384,3.236,29.669,21.859,41.688-9.074c0,0-14.393,15.453-35.81,2.154
			C71.565,137.613,47.769,135.117,37.598,157.084z"/>
		<path fill-rule="evenodd" clip-rule="evenodd" fill="#404041" d="M37.837,154.111c-0.758,2.078-1.341,6.51-1.04,5.994
			c7.208-12.385,28.489-18.57,55.538-1.906c10.688,6.584,31.062,18.684,42.469-11.131c0,0-14.186,16.1-37.202,2.105
			C72.187,133.723,46.111,131.438,37.837,154.111z"/>
	</g>
	<g>
		<path fill="#404041" d="M118.056,39.29v-8.953h-10.883v8.953h-4.175V17.145h4.175v9.333h10.883v-9.333h4.145V39.29H118.056z"/>
		<path fill="#404041" d="M143.42,39.258h-16.578c0-7.371,0-14.774,0-22.145h16.578v4.049h-12.433v5.094h11.99v3.891h-11.99v4.999
			h12.433V39.258z"/>
		<path fill="#404041" d="M163.154,35.082h-11.578l-1.899,4.176h-4.524l9.934-22.145h4.556l9.934,22.145h-4.556L163.154,35.082z
			 M157.365,21.764l-4.113,9.427h8.226L157.365,21.764z"/>
		<path fill="#404041" d="M174.346,20.909h-7.023v-3.796c6.389,0,11.799,0,18.222,0v3.796h-7.023v18.349h-4.175V20.909z"/>
		<path fill="#404041" d="M210.625,28.312c-0.062,5.726-3.575,11.452-11.356,11.452c-7.784,0-11.39-5.6-11.39-11.42
			s3.734-11.673,11.39-11.673C206.893,16.67,210.688,22.522,210.625,28.312z M191.992,28.406c0.095,3.638,2.056,7.53,7.277,7.53
			c5.22,0,7.181-3.924,7.245-7.561c0.062-3.733-2.025-7.909-7.245-7.909C194.048,20.466,191.897,24.674,191.992,28.406z"/>
		<path fill="#404041" d="M229.031,17.081h4.178v22.177h-2.596v0.032l-11.641-14.964v14.932h-4.175V17.113h3.385l10.85,13.73V17.081
			z"/>
		<path fill="#404041" d="M260.086,39.29v-8.953h-10.884v8.953h-4.175V17.145h4.175v9.333h10.884v-9.333h4.145V39.29H260.086z"/>
		<path fill="#404041" d="M285.45,39.258h-16.578c0-7.371,0-14.774,0-22.145h16.578v4.049h-12.433v5.094h11.99v3.891h-11.99v4.999
			h12.433V39.258z"/>
		<path fill="#404041" d="M305.183,35.082h-11.577l-1.899,4.176h-4.524l9.934-22.145h4.557l9.934,22.145h-4.556L305.183,35.082z
			 M299.394,21.764l-4.112,9.427h8.226L299.394,21.764z"/>
		<path fill="#404041" d="M318.779,17.113v18.285h11.388v3.86h-15.565V17.113H318.779z"/>
		<path fill="#404041" d="M336.334,20.909h-7.023v-3.796c6.389,0,11.799,0,18.222,0v3.796h-7.023v18.349h-4.175V20.909z"/>
		<path fill="#404041" d="M365.938,39.29v-8.953h-10.883v8.953h-4.176V17.145h4.176v9.333h10.883v-9.333h4.145V39.29H365.938z"/>
		<path fill="#404041" d="M119.828,59.94c0,2.278-1.392,4.05-3.606,4.746c2.785,0.759,4.366,3.005,4.366,5.568
			c0,4.556-4.239,5.789-8.035,5.789c-3.228,0-5.853,0-9.08,0V53.898c3.195,0,5.853,0,9.08,0
			C116.285,53.898,119.828,55.733,119.828,59.94z M105.18,63.927h7.594c2.657,0,5.44-0.823,5.44-3.987
			c0-3.227-2.91-4.587-5.661-4.587h-7.373V63.927z M105.18,74.398h7.373c2.783,0,6.357-0.664,6.357-4.176
			c-0.032-3.449-3.164-4.683-6.136-4.683c-2.659,0-4.937,0-7.594,0V74.398z"/>
		<path fill="#404041" d="M127.128,64.116h12.97v1.55h-12.97v8.732h13.981v1.645h-15.659V53.898h15.28v1.614h-13.603V64.116z"/>
		<path fill="#404041" d="M163.283,76.042l-2.437-5.441h-13.224l-2.404,5.441h-1.835l9.934-22.145h1.867l9.934,22.145H163.283z
			 M160.181,69.02l-5.946-13.477l-5.948,13.477H160.181z"/>
		<path fill="#404041" d="M184.028,53.898V67.66c0,11.579-16.958,11.609-16.958,0V53.898h1.678V67.66c0,9.522,13.602,9.49,13.602,0
			V53.898H184.028z"/>
		<path fill="#404041" d="M195.757,55.448h-8.003V53.93h17.715v1.518h-8.005v20.595h-1.708V55.448z"/>
		<path fill="#404041" d="M217.548,67.185l-8.637-13.255v-0.032h1.995l7.497,11.642l7.53-11.642h1.993v0.032l-8.669,13.255v8.857
			h-1.708V67.185z"/>
		<path fill="#404041" d="M255.564,59.244c0-3.48-2.721-4.081-5.663-4.081c-4.239,0-6.264,1.961-6.233,4.46
			c0.031,3.385,3.639,4.429,6.295,4.429c3.291,0,6.106,0,9.397,0v1.36h-2.024v4.84c0,2.372,0.537,4.493,2.751,4.461v1.328
			c-1.804,0.254-3.226-0.949-3.7-2.815c-1.614,2.626-4.146,3.101-6.518,3.101c-5.377,0-8.193-2.372-8.193-6.169
			c0-2.751,2.246-4.682,4.46-5.41c-2.309-0.695-4.08-2.625-4.08-5.093c0-3.417,2.815-5.884,7.878-5.884
			c3.543,0,7.117,0.917,7.117,5.473H255.564z M255.943,65.414h-6.074c-4.366,0-6.58,2.468-6.58,4.745
			c0,2.847,2.088,4.683,6.549,4.683c2.531,0,6.105-0.886,6.105-4.588V65.414z"/>
		<path fill="#404041" d="M288.012,53.898h0.949l6.771,20.247l6.864-20.247h1.835l-7.813,22.208h-1.835l-3.511-10.376l-2.785-8.763
			l-2.783,8.699l-3.544,10.44h-1.835l-7.75-22.208h1.803l6.833,20.247L288.012,53.898z"/>
		<path fill="#404041" d="M309.863,64.116h12.97v1.55h-12.97v8.732h13.98v1.645h-15.658V53.898h15.279v1.614h-13.602V64.116z"/>
		<path fill="#404041" d="M330.104,53.898v20.531h12.465v1.613h-14.173V53.898H330.104z"/>
		<path fill="#404041" d="M348.287,53.898v20.531h12.465v1.613H346.58V53.898H348.287z"/>
		<path fill="#404041" d="M365.523,53.898l14.898,18.317V53.898h1.678v22.145h-0.664l-14.933-18.285v18.285h-1.708V53.898H365.523z"
			/>
		<path fill="#404041" d="M389.498,64.116h12.97v1.55h-12.97v8.732h13.981v1.645H387.82V53.898H403.1v1.614h-13.602V64.116z"/>
		<path fill="#404041" d="M423.056,58.169c-1.614-2.594-4.207-2.974-6.706-3.005c-2.596,0-6.707,0.949-6.707,4.492
			c0,2.815,3.036,3.48,6.77,4.176c4.271,0.822,8.7,1.582,8.7,6.358c-0.032,4.999-5.062,6.201-8.763,6.201
			c-3.449,0-7.371-1.424-9.08-4.809l1.52-0.76c1.359,2.689,4.84,4.019,7.561,4.019s7.055-0.76,7.055-4.683
			c0.03-3.321-3.639-4.049-7.277-4.745c-4.049-0.791-8.193-1.614-8.193-5.695c-0.094-4.682,4.777-6.137,8.416-6.137
			c3.163,0,5.916,0.506,8.098,3.765L423.056,58.169z"/>
		<path fill="#404041" d="M443.865,58.169c-1.614-2.594-4.207-2.974-6.707-3.005c-2.594,0-6.707,0.949-6.707,4.492
			c0,2.815,3.037,3.48,6.771,4.176c4.271,0.822,8.7,1.582,8.7,6.358c-0.033,4.999-5.062,6.201-8.764,6.201
			c-3.449,0-7.371-1.424-9.08-4.809l1.52-0.76c1.361,2.689,4.84,4.019,7.561,4.019s7.055-0.76,7.055-4.683
			c0.031-3.321-3.638-4.049-7.276-4.745c-4.05-0.791-8.194-1.614-8.194-5.695c-0.094-4.682,4.777-6.137,8.416-6.137
			c3.164,0,5.916,0.506,8.099,3.765L443.865,58.169z"/>
	</g>
</g>
</svg>
